<?xml version="1.0" encoding="iso-8859-1"?>
<!-- Uploaded to: SVG Repo, www.svgrepo.com, Generator: SVG Repo Mixer Tools -->
<svg fill="#000000" height="800px" width="800px" version="1.1" id="Layer_1" xmlns="http://www.w3.org/2000/svg" xmlns:xlink="http://www.w3.org/1999/xlink" 
	 viewBox="0 0 512 512" xml:space="preserve">
<g>
	<g>
		<g>
			<path d="M502.747,185.06c-5.11,0-9.253,4.142-9.253,9.253v37.012c0,35.714-29.056,64.771-64.771,64.771H92.53V92.53h336.193
				c35.715,0,64.771,29.057,64.771,64.771c0,5.111,4.143,9.253,9.253,9.253c5.11,0,9.253-4.142,9.253-9.253
				c0-45.92-37.357-83.277-83.277-83.277H92.53V58.602c0-3.352-1.788-6.277-4.455-7.901c2.829-4.951,4.455-10.674,4.455-16.774
				C92.53,15.221,77.311,0,58.602,0S24.675,15.221,24.675,33.928c0,6.1,1.626,11.823,4.455,16.774
				c-2.667,1.624-4.455,4.549-4.455,7.901V444.32C10.815,445.859,0,457.64,0,471.904v30.843C0,507.858,4.143,512,9.253,512h98.699
				c5.11,0,9.253-4.142,9.253-9.253v-30.843c0-14.263-10.815-26.044-24.675-27.584V342.366c0-5.111-4.143-9.253-9.253-9.253
				c-5.11,0-9.253,4.142-9.253,9.253v101.778H43.181V67.855h30.843v237.494v0.006c0,5.111,4.143,9.253,9.253,9.253
				c0.041,0,0.079-0.005,0.12-0.006h345.326c45.92,0,83.277-37.357,83.277-83.277v-37.012
				C512,189.202,507.857,185.06,502.747,185.06z M89.446,462.651c5.103,0,9.253,4.15,9.253,9.253v21.59H18.506v-21.59
				c0-5.103,4.15-9.253,9.253-9.253H89.446z M58.602,49.349c-8.504,0-15.422-6.918-15.422-15.422
				c0-8.504,6.918-15.422,15.422-15.422s15.422,6.918,15.422,15.422C74.024,42.432,67.107,49.349,58.602,49.349z"/>
			<path d="M209.735,194.313c0,39.117,31.823,70.94,70.94,70.94c39.117,0,70.94-31.823,70.94-70.94
				c0-39.117-31.823-70.94-70.94-70.94C241.558,123.373,209.735,155.196,209.735,194.313z M333.108,194.313
				c0,28.913-23.521,52.434-52.434,52.434c-28.913,0-52.434-23.521-52.434-52.434c0-28.913,23.521-52.434,52.434-52.434
				C309.587,141.88,333.108,165.401,333.108,194.313z"/>
			<path d="M246.747,194.313c0,5.111,4.143,9.253,9.253,9.253h49.349c5.11,0,9.253-4.142,9.253-9.253
				c0-5.111-4.143-9.253-9.253-9.253H256C250.89,185.06,246.747,189.202,246.747,194.313z"/>
		</g>
	</g>
</g>
</svg>